<svg xmlns="http://www.w3.org/2000/svg" viewBox="0 0 256 256" role="img" aria-label="Standaard profielfoto">
  <defs>
    <linearGradient id="bg" x1="0" y1="0" x2="1" y2="1">
      <stop offset="0%" stop-color="#0b1f33" />
      <stop offset="100%" stop-color="#123d5a" />
    </linearGradient>
    <linearGradient id="face" x1="0" y1="0" x2="1" y2="1">
      <stop offset="0%" stop-color="#d7e6f0" />
      <stop offset="100%" stop-color="#9fb6c8" />
    </linearGradient>
  </defs>
  <rect width="256" height="256" rx="32" fill="url(#bg)" />
  <circle cx="86" cy="96" r="14" fill="#82d8f7" opacity="0.35" />
  <circle cx="186" cy="184" r="18" fill="#82d8f7" opacity="0.2" />
  <path d="M90 154c0-36 28-64 64-64 13 0 24 3 35 9 9 5 13 16 8 27l-5 10c-4 8-12 13-21 13h-28c-3 0-6 2-7 5l-9 24c-5 14-24 19-36 9-1-1-2-2-2-3-1-6 1-13 1-19v-11z" fill="url(#face)" />
  <circle cx="162" cy="111" r="4" fill="#2c4d63" />
  <path d="M145 126c7 4 14 4 21 0" stroke="#2c4d63" stroke-width="4" stroke-linecap="round" fill="none" />
  <path d="M82 204c13-19 37-32 64-32s51 13 64 32" stroke="#7ec9e8" stroke-width="10" stroke-linecap="round" fill="none" opacity="0.6" />
</svg>
